HIERARCHY
ROOT Hips
{
  OFFSET 0 0 0
  CHANNELS 6 Xposition Yposition Zposition Zrotation Xrotation Yrotation
  JOINT Spine
  {
    OFFSET 0.00000000 0.00000000 0.00000000
    CHANNELS 3 Zrotation Xrotation Yrotation
    JOINT Spine1
    {
      OFFSET 0.19000000 0.00000000 0.00000000
      CHANNELS 3 Zrotation Xrotation Yrotation
      JOINT Neck
      {
        OFFSET 0.22500000 0.00600000 0.00000000
        CHANNELS 3 Zrotation Xrotation Yrotation
        JOINT Head
        {
          OFFSET 0.14000000 0.00030878 0.00000000
          CHANNELS 3 Zrotation Xrotation Yrotation
          End Site
          {
            OFFSET 0.17000000 0.00000000 0.00000000
          }
        }
      }
      JOINT LeftShoulder
      {
        OFFSET 0.19800000 0.03700000 0.04300000
        CHANNELS 3 Zrotation Xrotation Yrotation
        JOINT LeftArm
        {
          OFFSET 0.08000000 0.00000000 0.00000000
          CHANNELS 3 Zrotation Xrotation Yrotation
          JOINT LeftForeArm
          {
            OFFSET 0.15200000 0.00000000 0.00000000
            CHANNELS 3 Zrotation Xrotation Yrotation
            JOINT LeftHand
            {
              OFFSET 0.17800000 0.00000000 0.00000000
              CHANNELS 3 Zrotation Xrotation Yrotation
              End Site
              {
                OFFSET 0.07200000 0.00000000 0.00000000
              }
            }
          }
        }
      }
      JOINT RightShoulder
      {
        OFFSET 0.19800000 0.03700000 -0.04300000
        CHANNELS 3 Zrotation Xrotation Yrotation
        JOINT RightArm
        {
          OFFSET 0.08000000 0.00000000 0.00151654
          CHANNELS 3 Zrotation Xrotation Yrotation
          JOINT RightForeArm
          {
            OFFSET 0.15200000 0.00000000 0.00000000
            CHANNELS 3 Zrotation Xrotation Yrotation
            JOINT RightHand
            {
              OFFSET 0.17800000 0.00000000 0.00000000
              CHANNELS 3 Zrotation Xrotation Yrotation
              End Site
              {
                OFFSET 0.07200000 0.00000000 0.00000000
              }
            }
          }
        }
      }
    }
  }
  JOINT LeftUpLeg
  {
    OFFSET 0.05984250 -0.07666000 0.04788790
    CHANNELS 3 Zrotation Xrotation Yrotation
    JOINT LeftLeg
    {
      OFFSET 0.16000000 0.00000000 0.00000000
      CHANNELS 3 Zrotation Xrotation Yrotation
      JOINT LeftFoot
      {
        OFFSET 0.18000000 0.00000000 0.00000000
        CHANNELS 3 Zrotation Xrotation Yrotation
        End Site
        {
          OFFSET 0.00000000 -0.10800000 0.00000000
        }
      }
    }
  }
  JOINT RightUpLeg
  {
    OFFSET 0.05984250 -0.07665980 -0.04788790
    CHANNELS 3 Zrotation Xrotation Yrotation
    JOINT RightLeg
    {
      OFFSET 0.16000000 0.00000000 0.00000000
      CHANNELS 3 Zrotation Xrotation Yrotation
      JOINT RightFoot
      {
        OFFSET 0.18000000 0.00000000 0.00000000
        CHANNELS 3 Zrotation Xrotation Yrotation
        End Site
        {
          OFFSET 0.00000000 -0.10800000 0.00000000
        }
      }
    }
  }
  JOINT Tail
  {
    OFFSET 0.06836960 -0.00722574 0.00000000
    CHANNELS 3 Zrotation Xrotation Yrotation
    JOINT Tail1
    {
      OFFSET 0.12000000 0.00000000 0.00000000
      CHANNELS 3 Zrotation Xrotation Yrotation
      End Site
      {
        OFFSET 0.12000000 0.00000000 0.00000000
      }
    }
  }
}
MOTION
Frames:	15
Frame Time:	0.0166667
0.0000000 0.4641780 0.0000000 -2.45083 3.85316 0.16479 -166.813 -1.81885 -21.4504 -15.6958 1.49526 4.26047 -11.1837 -0.028378 4.89519 89.4068 86.5609 -77.5594 -112.555 -40.218 -136.898 114.851 -23.5661 -132.767 -74.7505 -50.3243 19.4824 24.9428 2.18897 -21.0666 76.1943 -26.0354 37.3917 59.0907 -38.8289 -43.4303 -64.0716 -25.349 7.75821 -17.984 -0.969184 5.90026 -139.072 -0.35142 -25.5641 73.6138 21.3401 17.935 41.7399 -5.49581 -9.36645 -117.762 -4.08084 -8.14944 78.0529 -14.661 0.110153 54.4851 3.06515 0.531826 -9.77321 -3.8462 -60.6447 19.9711 -1.36533 -41.2052 
-0.0102498 0.4635570 0.0027965 -2.86074 3.65859 0.91857 -167.488 -2.02753 -21.5209 -14.4493 0.870849 5.27679 -10.7392 0.806811 3.20922 117.259 87.9139 -106.063 -112.521 -40.5539 -136.239 115.818 -20.3001 -131.821 -78.8542 -32.214 14.7832 13.7641 2.09454 -7.72761 76.3494 -25.3562 35.9341 59.4167 -38.5662 -42.6445 -62.7339 -25.6007 7.94682 -18.4894 -0.846946 5.59759 -139.879 -0.346328 -24.6815 68.2466 20.1167 18.9427 45.4005 -5.63605 -9.20084 -115.998 -4.33146 -7.89711 78.2752 -14.3877 0.015848 55.0053 3.08007 0.469862 -14.8648 -3.88925 -58.5869 21.6364 2.14969 -47.4493 
-0.0186786 0.4648840 0.0054188 -3.48457 3.61868 2.11977 -167.646 -2.11257 -21.2547 -13.5399 0.352162 6.49012 -10.6444 1.66325 1.5734 151.918 88.0857 -139.832 -112.367 -40.4988 -135.97 118.966 -17.0691 -130.6 -77.9384 -17.6691 12.4274 -0.418398 1.3117 -7.54768 76.8405 -24.4341 34.9885 58.4705 -38.0846 -42.6584 -60.9294 -25.2177 8.49988 -18.0788 -0.79283 5.28687 -139.89 -0.981286 -23.4281 63.1025 18.8152 18.9575 48.9829 -5.69462 -8.94571 -113.799 -4.23968 -7.87461 77.5026 -13.9122 -0.149909 56.0611 2.98075 0.306588 -19.1595 -4.28669 -55.8867 22.794 8.15388 -48.2181 
-0.0276126 0.4642160 0.0088951 -4.25393 3.98818 3.42876 -167.928 -1.91685 -20.394 -12.3301 0.210781 7.06326 -10.4673 2.47927 -0.0300875 -176.385 87.5453 -172.276 -112.332 -40.7088 -135.529 122.353 -14.437 -128.457 -75.6223 -13.7439 10.6721 -4.5865 1.97455 -11.4034 77.1523 -23.7741 34.0897 57.7398 -38.2379 -42.7161 -59.4582 -25.1437 8.95162 -17.9631 -0.788995 5.32355 -139.01 -2.05183 -25.0827 58.6502 18.1398 22.1576 52.1015 -6.28747 -9.31697 -111.449 -3.72096 -7.99348 76.9877 -13.227 -0.510881 56.7971 2.89934 0.176571 -22.1192 -5.34567 -52.5723 22.7615 14.8098 -44.2487 
-0.0355806 0.4633020 0.0129181 -5.28247 4.57206 4.81535 -167.964 -1.74008 -19.6935 -11.1453 0.026046 8.04048 -10.6799 3.4559 -1.73903 -161.443 86.5516 173.101 -112.095 -40.7621 -134.875 122.731 -9.34621 -126.002 -72.5276 -9.31695 9.05736 -3.79318 0.707764 -5.23608 77.4935 -23.0975 33.2023 56.6335 -38.5448 -42.7562 -58.2525 -25.3138 9.17952 -17.7502 -0.717578 5.15217 -138.102 -3.46932 -25.6693 57.6506 16.4894 22.8573 53.3921 -6.21943 -9.08358 -109.061 -2.81821 -7.93056 76.5568 -13.0702 -1.0517 57.9564 2.92862 0.116485 -23.476 -6.92028 -48.4543 21.4222 19.6707 -37.6189 
-0.0426698 0.4628510 0.0171950 -6.58061 5.44608 5.75795 -168.131 -1.55181 -19.7898 -9.29777 -0.0129835 9.30779 -11.4388 4.50937 -3.18279 -155.149 85.4474 167.208 -112.102 -41.3674 -133.89 122.669 -5.07979 -123.82 -68.0082 -8.75636 7.27588 -2.50452 0.79728 -5.06088 77.9502 -22.4731 32.9783 54.1425 -38.9819 -43.4687 -56.7817 -25.464 9.21265 -17.571 -0.637506 4.90074 -136.704 -4.54428 -25.4913 59.042 14.663 21.6044 52.0222 -5.72205 -8.58641 -106.44 -2.20325 -8.46565 75.7586 -13.3446 -1.28782 59.2574 3.00827 0.11185 -24.2204 -9.36423 -43.0803 18.5202 23.3073 -30.4992 
-0.0499615 0.4628220 0.0219524 -7.54017 6.26448 6.62581 -168.707 -1.38761 -19.4786 -7.30024 0.0275458 9.77434 -12.146 5.52463 -4.22022 -152.397 84.3793 164.84 -112.188 -42.0986 -132.908 123.235 -3.39695 -123.115 -63.9335 -7.1956 5.26139 -4.34848 1.43403 -8.40226 78.2949 -21.8953 32.3881 51.7922 -39.2077 -43.827 -55.1722 -25.2587 9.05989 -17.341 -0.693554 5.10784 -135.311 -4.16949 -24.6736 61.9135 14.7477 20.0238 47.9467 -5.49369 -8.66422 -104.264 -1.82151 -9.03327 74.9074 -13.8389 -1.31136 60.8655 3.10052 0.0754936 -25.6366 -12.2091 -36.8997 15.1835 25.7645 -23.9334 
-0.0590535 0.4620380 0.0267050 -7.64521 6.65561 7.68613 -169.536 -1.29456 -19.392 -5.87293 -0.178825 10.8276 -12.775 6.15015 -5.05491 -150.999 83.8082 163.461 -112.281 -42.4314 -132.594 124.8 -3.77132 -123.268 -60.831 -3.67201 3.47257 -5.34327 1.09358 -7.24171 78.4582 -21.7229 32.4946 50.32 -40.3136 -43.9322 -54.0146 -24.8881 8.74989 -16.991 -0.746617 5.29371 -134.959 -3.86625 -23.4426 63.7856 13.9504 18.5368 46.7774 -5.20192 -8.41727 -102.903 -1.73552 -9.39615 74.0826 -14.4095 -1.24258 62.5524 3.21158 0.0157194 -27.3016 -14.9463 -29.5534 11.3504 26.0544 -16.9916 
-0.0694752 0.4605260 0.0304770 -7.38600 7.19150 8.86222 -170.615 -1.1053 -19.7094 -4.60082 -0.371811 12.4397 -13.7262 6.66869 -5.87724 -148.874 83.1906 162.633 -112.238 -42.5713 -132.275 126.848 -5.83706 -123.488 -58.001 0.506965 1.44836 -7.11164 0.998512 -7.63171 78.4816 -21.7643 32.769 48.908 -41.9266 -43.9399 -53.1742 -24.0293 8.1165 -16.3298 -0.8793 5.75952 -135.021 -4.78809 -23.1955 65.4859 12.9879 17.2998 43.2047 -4.56224 -7.69454 -102.181 -1.64414 -10.5753 73.5361 -14.1891 -1.02951 64.54 3.2643 -0.126084 -29.0133 -18.0006 -21.7241 7.4513 24.4892 -10.6295 
-0.0803312 0.4608630 0.0336351 -7.12236 7.66382 9.97304 -171.079 -1.01615 -20.3301 -3.93264 -0.580709 14.2154 -14.2102 7.02646 -6.48237 -148.435 82.9713 161.449 -112.191 -42.7096 -131.95 128.866 -9.70739 -123.692 -57.6916 5.29757 0.513578 -11.7436 1.87867 -11.8537 78.3492 -22.0311 33.1695 47.7102 -43.6703 -44.0113 -52.5479 -23.7071 7.50428 -15.6767 -0.940957 6.03634 -135.058 -4.68683 -24.5468 66.7863 15.114 18.0185 43.9436 -4.95953 -8.21996 -101.442 -1.97355 -12.3738 72.492 -13.302 -0.579361 67.0054 3.07706 -0.460706 -30.153 -21.1218 -13.4616 4.35465 21.2042 -5.45234 
-0.0922420 0.4629010 0.0367902 -6.05689 7.48072 11.5373 -171.666 -1.13759 -19.9245 -3.68494 -1.06199 15.134 -14.7721 6.88023 -6.54255 -146.27 82.9066 159.348 -112.344 -42.6942 -132.327 127.767 -11.6753 -123.849 -60.1152 7.55145 1.32132 -12.2961 1.23947 -10.0719 78.4455 -22.146 34.0661 46.3627 -45.1069 -44.1188 -51.5618 -23.2024 6.3698 -15.838 -0.95425 6.22625 -134.148 -5.03894 -24.6608 65.5405 16.5594 18.9171 44.3772 -5.41501 -8.7879 -100.879 -2.04954 -12.9366 70.3393 -13.261 -0.403261 69.1775 2.89637 -0.724754 -30.9719 -23.1294 -4.80113 2.21848 16.6984 -1.89966 
-0.1050508 0.4652140 0.0400916 -4.76014 7.09512 13.1866 -172.113 -1.31492 -19.3073 -3.83078 -1.61835 15.8724 -15.1856 6.61166 -6.44666 -145.454 83.1825 158.7 -112.587 -42.6281 -132.989 125.904 -12.9307 -123.218 -61.9816 8.0489 1.00911 -12.2146 1.74928 -12.2272 78.3157 -22.5614 35.0029 45.2467 -46.6836 -44.364 -50.2324 -22.2849 5.40649 -15.3148 -0.786978 5.7903 -133.085 -5.26572 -24.2748 64.0913 17.907 19.6948 44.6029 -5.86493 -9.37429 -101.423 -1.0606 -12.84 69.3098 -11.0639 -0.504353 73.4265 2.63364 -1.26922 -30.7 -24.3219 4.14244 1.30732 11.7642 0.161432 
-0.1182397 0.4664190 0.0435780 -3.28747 6.72852 15.0571 -172.553 -1.27688 -18.2582 -4.59736 -2.08508 16.4953 -14.8413 5.86343 -6.80244 -137.946 82.6682 150.804 -112.702 -42.0729 -134.139 125.065 -15.2796 -122.917 -63.2691 9.43264 0.676094 -13.0284 2.20939 -14.0221 78.1512 -23.0299 35.9316 45.176 -48.8457 -43.9113 -49.3655 -20.0195 4.61253 -13.1404 -0.55835 5.01398 -132.757 -5.57357 -23.0323 63.7062 18.5366 19.1726 44.6327 -5.90377 -9.41436 -102.035 -0.264772 -12.1227 69.0819 -10.2674 -0.952607 74.0669 2.51923 -1.38913 -30.0659 -24.835 12.7975 1.09908 7.35667 1.15003 
-0.1311656 0.4668340 0.0469648 -1.80406 6.33824 16.9462 -173.142 -1.33958 -16.888 -5.43863 -2.64476 16.6934 -14.3923 5.29922 -7.19445 -131.035 81.4086 143.946 -112.622 -41.3801 -135.087 124.222 -17.6054 -122.638 -64.2437 11.9634 0.368789 -14.7956 2.2303 -13.9729 77.9572 -23.4507 36.5212 44.506 -50.738 -43.7478 -47.7577 -19.4543 3.77992 -12.1194 -0.223086 4.11099 -132.97 -5.8633 -21.5761 64.1109 18.8929 18.3298 45.0078 -5.86532 -9.32836 -103.116 -0.196363 -11.2489 70.3296 -10.1964 -1.38257 70.8503 2.39292 -1.20135 -28.5599 -24.4896 21.3189 0.956549 3.58675 1.61324 
-0.1437155 0.4669970 0.0508856 -0.54693 6.09417 18.7443 -173.849 -1.41837 -15.2222 -5.99607 -3.10939 16.3939 -13.8583 4.92258 -7.45413 -126.685 79.8551 138.838 -112.409 -40.6694 -135.778 123.137 -19.4199 -122.116 -64.5359 12.9722 -0.187645 -16.1078 2.62412 -14.9622 77.7297 -23.8809 36.9698 42.836 -52.2328 -44.6379 -45.5084 -18.3982 3.01086 -11.576 0.102127 3.14823 -132.715 -6.12575 -20.3886 64.3082 19.3987 17.7634 44.8133 -5.89997 -9.39133 -105.706 0.871209 -10.1663 72.9881 -7.69834 -1.96415 68.7688 2.12561 -1.26281 -26.8285 -23.97 29.7451 1.54302 0.658466 1.56717 
